# xmcd
#
# Track frame offsets:
#	150
#	17071
#	35670
#	53456
#	78826
#	95041
#	110397
#	128977
#	146693
#	167053
#	183848
#	207728
#	226404
#	242545
#
# Disc length: 3463 seconds
#
# Revision: 1
# Processed by: cddbd v1.5.2PL0 Copyright (c) Steve Scherf et al.
# Submitted via: audiograbber 1.83.01
#
DISCID=b90d850e
DTITLE=Chartbuster - 60360
DYEAR=2007
DGENRE=Country
TTITLE0=Jackson, Alan - Woman's Love
TTITLE1=Urban, Keith - Stupid Boy
TTITLE2=Underwood, Carrie - Wasted
TTITLE3=Church, Eric - Two Pink Lines
TTITLE4=Emerson Drive - Moments
TTITLE5=Evans, Sara - Missing Missouri
TTITLE6=Ingram, Jack - Lips Of An Angel
TTITLE7=Holy, Steve - Come On Rain
TTITLE8=Dalley, Amy - Everybody's Got A Vice
TTITLE9=Larsen, Blaine - Spoken Like A Man
TTITLE10=Harris, Rushlow - That's So You
TTITLE11=Osborne, Joan - Who Divided
TTITLE12=Bryan, Luke - All My Friends Say
TTITLE13=Malo and McBride - Feels Like Home
EXTD=
EXTT0=
EXTT1=
EXTT2=
EXTT3=
EXTT4=
EXTT5=
EXTT6=
EXTT7=
EXTT8=
EXTT9=
EXTT10=
EXTT11=
EXTT12=
EXTT13=
PLAYORDER=
